Patient4_TMGait_0pt4_03_left_16_GRF.mot
version=1
nRows=52
nColumns=19
inDegrees=no
endheader
time	F1x	F1y	F1z	M1x	M1y	M1z	F2x	F2y	F2z	M2x	M2y	M2z	EC1x	EC1y	EC1z	EC2x	EC2y	EC2z
20.77	-11.7855	1.4678	-2.4982	-0.51002	-0.20136	1.8418	-47.2987	748.3392	-60.9671	279.9703	89.9215	845.6032	-0.0592	0.0182	-0.0073	-0.0462	0.0165	0.9585
20.7834	-7.7634	1.3052	-1.6277	-0.48804	-0.18155	1.6461	-42.3471	743.3992	-60.5977	278.0756	86.4442	836.4381	-0.0592	0.0182	-0.0073	-0.0462	0.0165	0.9585
20.7969	-4.3873	1.2057	-0.90145	-0.47572	-0.16068	1.5221	-37.4621	738.9521	-60.0699	276.3288	82.8878	827.3927	-0.0592	0.0182	-0.0073	-0.0462	0.0165	0.9585
20.8103	-1.8412	1.1675	-0.35644	-0.47241	-0.13956	1.4554	-32.8929	735.9246	-59.4603	275.0865	79.491	819.6092	-0.0592	0.0182	-0.0073	-0.0462	0.0165	0.9585
20.8237	-0.10585	1.181	0.011622	-0.47566	-0.11989	1.4285	-28.7289	735.0699	-58.8532	274.6425	76.3933	813.9809	-0.0592	0.0182	-0.0073	-0.0462	0.0165	0.9585
20.8371	0.93562	1.2268	0.22154	-0.48063	-0.098691	1.4303	-24.9433	736.7638	-58.3231	275.1508	73.6508	810.9455	-0.0592	0.0182	-0.0073	-0.0462	0.0165	0.9585
20.8506	1.4546	1.2625	0.31935	-0.47693	-0.087997	1.423	-21.4509	740.9209	-57.9059	276.5897	71.2454	810.4214	-0.0592	0.0182	-0.0073	-0.0462	0.0165	0.9585
20.864	1.6088	1.2527	0.34091	-0.45529	-0.088963	1.3774	-18.1682	747.0125	-57.5958	278.7637	69.109	811.8583	-0.0592	0.0182	-0.0073	-0.0462	0.0165	0.9585
20.8774	1.5313	1.1386	0.33478	-0.39746	-0.11526	1.2289	-15.0092	754.1348	-57.3439	281.3354	67.1295	814.307	-0.0592	0.0182	-0.0073	-0.0462	0.0165	0.9585
20.8909	1.3216	0.86012	0.32117	-0.28432	-0.1632	0.90556	-11.918	761.1825	-57.0874	283.8903	65.2004	816.6181	-0.0592	0.0182	-0.0073	-0.0462	0.0165	0.9585
20.9043	1.0492	0.35222	0.3304	-0.094445	-0.2444	0.32962	-8.8433	767.0375	-56.7553	286.0047	63.2241	817.6394	-0.0592	0.0182	-0.0073	-0.0462	0.0165	0.9585
20.9177	0.77193	-0.45173	0.36283	0.19449	-0.34865	-0.5878	-5.7503	770.7503	-56.3021	287.3144	61.1416	816.4186	-0.0592	0.0182	-0.0073	-0.0462	0.0165	0.9585
20.9311	0.52446	-1.5854	0.41989	0.59474	-0.47186	-1.8958	-2.6119	771.7003	-55.6934	287.5755	58.916	812.3631	-0.0592	0.0182	-0.0073	-0.0462	0.0165	0.9585
20.9446	0.36158	-3.0228	0.48347	1.0978	-0.58256	-3.5789	0.60242	769.6827	-54.9355	286.6964	56.5544	805.3164	-0.0592	0.0182	-0.0073	-0.0462	0.0165	0.9585
20.958	0.33551	-4.6525	0.52309	1.6649	-0.62727	-5.4985	3.8991	764.9036	-54.0817	284.7356	54.1168	795.5607	-0.0592	0.0182	-0.0073	-0.0462	0.0165	0.9585
20.9714	0.52035	-6.2135	0.48932	2.2025	-0.52044	-7.3455	7.2815	757.9166	-53.2278	281.882	51.704	783.7325	-0.0592	0.0182	-0.0073	-0.0462	0.0165	0.9585
20.9849	1.0084	-7.2204	0.31562	2.5387	-0.15074	-8.5567	10.7132	749.5727	-52.4855	278.4393	49.4375	770.7672	-0.0592	0.0182	-0.0073	-0.0462	0.0165	0.9585
20.9983	1.9038	-6.9297	-0.082007	2.4108	0.6204	-8.2648	14.1616	740.8966	-51.9624	274.7845	47.4289	757.7574	-0.0592	0.0182	-0.0073	-0.0462	0.0165	0.9585
21.0117	3.3099	-4.3066	-0.79459	1.4478	1.9439	-5.2642	17.6024	732.9205	-51.7478	271.3058	45.7649	745.7803	-0.0592	0.0182	-0.0073	-0.0462	0.0165	0.9585
21.0251	5.2757	1.97	-1.9075	-0.82254	3.9466	1.9993	20.988	726.449	-51.8973	268.3132	44.505	735.6695	-0.0592	0.0182	-0.0073	-0.0462	0.0165	0.9585
21.0386	7.7726	13.4004	-3.4781	-4.931	6.6871	15.2918	24.2445	721.829	-52.4205	265.9503	43.6752	727.7976	-0.0592	0.0182	-0.0073	-0.0462	0.0165	0.9585
21.052	10.5961	31.4068	-5.4879	-11.3761	10.0682	36.301	27.2537	718.8215	-53.2568	264.146	43.2498	721.9544	-0.0592	0.0182	-0.0073	-0.0462	0.0165	0.9585
21.0654	13.2874	56.921	-7.7916	-20.4738	13.743	66.147	29.8502	716.5482	-54.2627	262.6001	43.1372	717.2853	-0.0592	0.0182	-0.0073	-0.0462	0.0165	0.9585
21.0789	15.0325	89.7086	-10.0299	-32.1188	16.987	104.606	31.816	713.5908	-55.2188	260.8154	43.1916	712.3979	-0.0592	0.0182	-0.0073	-0.0462	0.0165	0.9585
21.0923	14.7423	127.6503	-11.5901	-45.5313	18.6929	149.2709	32.9528	708.2052	-55.8779	258.1753	43.2428	705.567	-0.0592	0.0182	-0.0073	-0.0462	0.0165	0.9585
21.1057	11.9717	166.7006	-11.7181	-59.2355	17.8136	195.4399	33.1335	698.6754	-56.0118	254.0768	43.1218	695.0801	-0.0592	0.0182	-0.0073	-0.0462	0.0165	0.9585
21.1191	7.7576	201.6598	-9.7238	-71.3693	13.9313	236.9222	32.3461	683.7792	-55.4877	248.1003	42.7155	679.682	-0.0592	0.0182	-0.0073	-0.0462	0.0165	0.9585
21.1326	3.5121	228.5993	-5.9667	-80.5854	7.9819	268.8731	30.7581	663.1499	-54.3152	240.1327	41.9889	658.9143	-0.0592	0.0182	-0.0073	-0.0462	0.0165	0.9585
21.146	0.0090673	247.0115	-1.3294	-86.7589	1.3057	290.5348	28.6923	637.3437	-52.6277	230.3863	40.9678	633.1953	-0.0592	0.0182	-0.0073	-0.0462	0.0165	0.9585
21.1594	-2.6586	259.6086	3.4123	-90.8901	-5.1604	305.0547	26.5575	607.5814	-50.5943	219.3101	39.6765	603.5896	-0.0592	0.0182	-0.0073	-0.0462	0.0165	0.9585
21.1729	-4.7829	270.5255	7.8467	-94.4599	-11.0316	317.3443	24.7289	575.322	-48.3104	207.4337	38.0761	571.4346	-0.0592	0.0182	-0.0073	-0.0462	0.0165	0.9585
21.1863	-6.6135	283.3954	11.6941	-98.7645	-16.0907	331.6785	23.4606	541.881	-45.7294	195.2323	36.0364	537.9908	-0.0592	0.0182	-0.0073	-0.0462	0.0165	0.9585
21.1997	-8.2761	300.3991	14.9422	-104.5692	-20.3691	350.6093	22.8341	508.1226	-42.714	183.0182	33.3992	504.1198	-0.0592	0.0182	-0.0073	-0.0462	0.0165	0.9585
21.2131	-9.7755	322.2628	17.6677	-112.1127	-23.9734	374.9708	22.752	474.3938	-39.1484	170.9067	30.0805	470.2086	-0.0592	0.0182	-0.0073	-0.0462	0.0165	0.9585
21.2266	-11.065	348.6965	20.1391	-121.2548	-27.1925	404.4337	23.0238	440.5594	-35.0607	158.8261	26.1568	436.1798	-0.0592	0.0182	-0.0073	-0.0462	0.0165	0.9585
21.24	-12.0529	378.8514	22.6385	-131.6487	-30.3189	437.9988	23.3897	406.1567	-30.6145	146.575	21.8549	401.6376	-0.0592	0.0182	-0.0073	-0.0462	0.0165	0.9585
21.2534	-12.679	411.5809	25.5213	-142.8418	-33.7273	474.3299	23.5609	370.5971	-26.0703	133.904	17.5039	366.0525	-0.0592	0.0182	-0.0073	-0.0462	0.0165	0.9585
21.2669	-13.0414	445.8235	29.0596	-154.4229	-37.7498	512.2083	23.2682	333.449	-21.681	120.626	13.4252	329.0324	-0.0592	0.0182	-0.0073	-0.0462	0.0165	0.9585
21.2803	-13.3102	481.0482	33.3806	-166.1876	-42.577	551.0291	22.2781	294.6588	-17.6448	106.6997	9.8864	290.5493	-0.0592	0.0182	-0.0073	-0.0462	0.0165	0.9585
21.2937	-13.6326	517.3551	38.3717	-178.1764	-48.1257	590.9075	20.4386	254.6632	-14.0681	92.2795	7.0482	251.0377	-0.0592	0.0182	-0.0073	-0.0462	0.0165	0.9585
21.3071	-14.0643	555.1088	43.779	-190.5327	-54.1279	632.2397	17.7374	214.4335	-11.0051	77.7251	4.9807	211.4377	-0.0592	0.0182	-0.0073	-0.0462	0.0165	0.9585
21.3206	-14.6321	594.3592	49.3153	-203.2933	-60.2713	675.0674	14.3496	175.3428	-8.4581	63.5458	3.6394	173.0581	-0.0592	0.0182	-0.0073	-0.0462	0.0165	0.9585
21.334	-15.3747	634.4582	54.7949	-216.2456	-66.3587	718.6834	10.5961	138.8675	-6.408	50.2922	2.9032	137.2915	-0.0592	0.0182	-0.0073	-0.0462	0.0165	0.9585
21.3474	-16.3169	674.0554	60.1187	-228.9317	-72.2896	761.614	6.8712	106.2708	-4.796	38.4381	2.5837	105.3205	-0.0592	0.0182	-0.0073	-0.0462	0.0165	0.9585
21.3609	-17.4571	711.4142	65.2062	-240.7694	-77.98	801.9634	3.5469	78.3582	-3.551	28.2883	2.4862	77.8981	-0.0592	0.0182	-0.0073	-0.0462	0.0165	0.9585
21.3743	-18.7311	744.8328	69.8975	-251.2048	-83.2492	837.8601	0.84694	55.3901	-2.5798	19.9478	2.4403	55.2733	-0.0592	0.0182	-0.0073	-0.0462	0.0165	0.9585
21.3877	-20.0502	772.937	73.9715	-259.814	-87.8398	867.7914	-1.1477	37.1916	-1.8165	13.3573	2.3494	37.2878	-0.0592	0.0182	-0.0073	-0.0462	0.0165	0.9585
21.4011	-21.2992	794.8138	77.1802	-266.3394	-91.4583	890.7271	-2.4126	23.3331	-1.2136	8.3577	2.1608	23.5425	-0.0592	0.0182	-0.0073	-0.0462	0.0165	0.9585
21.4146	-22.3541	809.9857	79.3467	-270.6703	-93.8757	906.103	-2.9752	13.261	-0.75053	4.7417	1.8668	13.5204	-0.0592	0.0182	-0.0073	-0.0462	0.0165	0.9585
21.428	-23.092	818.3587	80.401	-272.8139	-94.9755	913.7874	-2.9396	6.3843	-0.41316	2.2894	1.4942	6.6636	-0.0592	0.0182	-0.0073	-0.0462	0.0165	0.9585
21.4414	-23.3999	820.1518	80.3795	-272.8708	-94.7574	913.9966	-2.5376	2.136	-0.19018	0.78779	1.1137	2.4341	-0.0592	0.0182	-0.0073	-0.0462	0.0165	0.9585
21.4549	-23.1771	815.9232	79.4061	-271.041	-93.3233	907.3311	-1.9844	-0.096383	-0.058752	0.0095688	0.778	0.22441	-0.0592	0.0182	-0.0073	-0.0462	0.0165	0.9585
